<?xml version="1.0" standalone="no"?>
<!DOCTYPE svg PUBLIC "-//W3C//DTD SVG 20010904//EN"
 "http://www.w3.org/TR/2001/REC-SVG-20010904/DTD/svg10.dtd">
<svg version="1.0" xmlns="http://www.w3.org/2000/svg"
 width="720.000000pt" height="181.000000pt" viewBox="0 0 720.000000 181.000000"
 preserveAspectRatio="xMidYMid meet">
<metadata>
Created by potrace 1.13, written by Peter Selinger 2001-2015
</metadata>
<g transform="translate(0.000000,181.000000) scale(0.100000,-0.100000)"
fill="white" stroke="none">
<path d="M1797 1803 c992 -2 2614 -2 3605 0 992 1 181 2 -1802 2 -1983 0
-2794 -1 -1803 -2z"/>
<path d="M80 910 l0 -820 820 0 820 0 0 820 0 820 -820 0 -820 0 0 -820z
m1570 0 l0 -750 -750 0 -750 0 0 750 0 750 750 0 750 0 0 -750z"/>
<path d="M1127 1574 c-4 -4 -7 -104 -7 -221 l0 -214 -46 35 c-68 52 -130 69
-233 64 -154 -7 -256 -77 -326 -223 -136 -282 -49 -635 183 -743 50 -24 69
-27 157 -26 115 0 161 17 240 86 l45 40 0 -52 0 -51 78 3 77 3 0 650 0 650
-80 3 c-45 1 -84 0 -88 -4z m-146 -510 c41 -21 90 -74 110 -120 47 -105 46
-293 -2 -404 -41 -96 -143 -160 -228 -145 -72 12 -101 27 -141 72 -61 70 -83
153 -79 296 4 103 7 118 37 180 20 40 47 78 68 94 66 50 167 62 235 27z"/>
<path d="M1880 910 l0 -820 820 0 820 0 0 820 0 820 -820 0 -820 0 0 -820z
m1570 0 l0 -750 -750 0 -750 0 0 750 0 750 750 0 750 0 0 -750z"/>
<path d="M2427 1210 c-55 -14 -93 -36 -143 -82 l-44 -41 0 57 0 57 -87 -3 -88
-3 0 -475 0 -475 88 -3 87 -3 0 268 c0 373 14 439 108 506 53 39 155 50 197
23 60 -39 60 -38 65 -431 l5 -360 87 -3 87 -3 3 323 c3 321 3 323 28 373 36
71 92 108 174 113 68 4 105 -8 141 -48 19 -21 20 -40 25 -389 l5 -366 93 -3
93 -3 -3 378 c-3 363 -4 380 -26 434 -38 96 -121 153 -239 165 -107 11 -212
-23 -285 -94 l-37 -35 -41 45 c-22 26 -58 53 -82 63 -51 20 -159 28 -211 15z"/>
<path d="M3680 910 l0 -820 820 0 820 0 0 820 0 820 -820 0 -820 0 0 -820z
m1570 0 l0 -750 -750 0 -750 0 0 750 0 750 750 0 750 0 0 -750z"/>
<path d="M4376 1239 c-111 -27 -211 -111 -268 -223 -80 -159 -76 -421 9 -578
38 -69 129 -151 200 -179 48 -19 76 -23 168 -22 125 0 194 19 271 75 129 93
202 309 175 523 -23 188 -95 302 -239 372 -70 35 -82 38 -176 40 -56 1 -118
-2 -140 -8z m212 -161 c52 -16 96 -61 127 -130 69 -153 32 -436 -66 -511 -60
-45 -160 -60 -240 -35 -157 47 -228 340 -133 548 40 88 82 123 167 140 45 8
91 5 145 -12z"/>
<path d="M5480 910 l0 -820 820 0 820 0 0 820 0 820 -820 0 -820 0 0 -820z
m1570 0 l0 -750 -750 0 -750 0 0 750 0 750 750 0 750 0 0 -750z"/>
<path d="M5907 1193 c-4 -3 -7 -39 -7 -79 l0 -74 251 -2 252 -3 -104 -125
c-57 -68 -179 -217 -271 -329 l-168 -205 0 -68 0 -68 403 2 402 3 0 75 0 75
-272 3 c-150 1 -273 5 -273 7 0 3 42 56 93 118 51 62 171 208 266 324 l172
213 -3 67 -3 68 -366 3 c-201 1 -368 -1 -372 -5z"/>
</g>
</svg>
