<?xml version="1.0" standalone="no"?>
<!DOCTYPE svg PUBLIC "-//W3C//DTD SVG 20010904//EN"
 "http://www.w3.org/TR/2001/REC-SVG-20010904/DTD/svg10.dtd">
<svg version="1.0" xmlns="http://www.w3.org/2000/svg"
 width="520.000000pt" height="520.000000pt" viewBox="0 0 520.000000 520.000000"
 preserveAspectRatio="xMidYMid meet">
<metadata>
Created by potrace 1.13, written by Peter Selinger 2001-2015
</metadata>
<g transform="translate(0.000000,520.000000) scale(0.100000,-0.100000)"
fill="#000000" stroke="none">
<path d="M1555 5141 c-314 -58 -581 -177 -810 -359 -341 -272 -563 -632 -657
-1062 -20 -92 -23 -134 -23 -330 0 -235 7 -290 56 -465 50 -173 135 -352 237
-495 83 -117 239 -275 356 -362 271 -202 632 -318 984 -318 269 1 531 64 785
191 108 54 116 56 98 31 -10 -15 -33 -40 -50 -57 l-32 -29 198 -198 198 -198
92 92 c51 51 94 90 96 87 2 -2 37 -76 77 -164 134 -295 298 -575 469 -800 86
-113 305 -338 398 -408 217 -165 421 -247 612 -247 164 0 260 37 362 140 55
56 70 79 95 146 27 73 29 89 28 214 -1 119 -4 145 -28 220 -149 455 -654 920
-1388 1278 -87 43 -157 81 -158 87 0 5 38 48 85 95 l85 85 -198 197 -197 197
-48 -44 c-27 -25 -49 -45 -51 -45 -1 0 26 56 60 125 69 141 122 292 154 440
31 145 39 453 15 597 -42 254 -129 477 -268 683 -82 120 -293 331 -415 414
-171 116 -385 206 -602 253 -139 30 -474 35 -615 9z m575 -180 c368 -75 691
-287 899 -591 268 -390 329 -892 166 -1359 -167 -477 -527 -837 -1001 -1001
-409 -141 -872 -101 -1225 106 -315 184 -536 455 -649 794 -66 200 -90 501
-56 711 67 413 273 766 603 1029 219 176 529 302 818 334 89 9 352 -4 445 -23z
m1302 -2513 c93 -90 106 -106 101 -130 -3 -14 -15 -36 -27 -47 l-22 -21 -108
109 c-92 94 -107 113 -101 133 8 24 34 58 45 58 3 0 54 -46 112 -102z m345
-574 c360 -216 626 -415 851 -637 257 -254 382 -466 382 -645 0 -79 -6 -92
-41 -85 -25 4 -27 9 -32 73 -24 284 -371 669 -952 1055 -158 105 -400 249
-487 291 -45 21 -47 36 -12 69 l26 24 69 -34 c37 -19 126 -69 196 -111z"/>
<path d="M1660 4873 c-19 -2 -84 -15 -145 -28 -289 -62 -526 -194 -750 -419
-182 -182 -288 -353 -365 -585 -57 -170 -74 -299 -67 -501 6 -183 22 -264 83
-427 142 -380 458 -684 838 -808 160 -51 268 -68 446 -68 256 1 440 44 668
159 365 183 648 509 767 885 46 147 56 209 62 394 5 158 3 194 -16 293 -55
288 -183 524 -394 729 -189 183 -392 292 -662 354 -67 15 -134 21 -260 24 -93
2 -186 1 -205 -2z m472 -192 c213 -54 389 -153 544 -306 663 -657 348 -1811
-579 -2119 -123 -41 -247 -59 -397 -59 -260 1 -487 70 -696 214 -148 102 -320
308 -393 471 -103 228 -135 503 -87 753 108 559 569 994 1140 1075 34 5 126 7
206 5 120 -3 166 -9 262 -34z"/>
</g>
</svg>
